# xmcd
#
# Track frame offsets: 
#        150
#        5560
#        28321
#        46444
#        65806
#        85372
#        104500
#        124399
#        133768
#        151150
#        173515
#        189796
#        208306
#        227103
#        246340
#        251356
#        274303
#
# Disc length: 3804 seconds
#
# Revision: 1
# Processed by: cddbd v1.5.2PL0 Copyright (c) Steve Scherf et al.
# Submitted via: ExactAudioCopy v0.99pb5
#
DISCID=f90eda11
DTITLE=Busta Flex - La Pièce Maîtresse
DYEAR=2006
DGENRE=Rap F
TTITLE0=Intro
TTITLE1=Hip-hop (feat. Nayobé)
TTITLE2=Sauvage
TTITLE3=Quoi de neuf ?
TTITLE4=Flex fonk
TTITLE5=Missile flow (feat. Djam-C)
TTITLE6=J'me fais rare
TTITLE7=Interlude Jimi Hilife
TTITLE8=Rowsfav (bang bang)
TTITLE9=Mon éternelle (feat. Trade Union)
TTITLE10=J'aime bien ton boule
TTITLE11=Les traîtres
TTITLE12=N'appelle pas la police
TTITLE13=Non stop
TTITLE14=Interlude James
TTITLE15=Puff puff pass
TTITLE16=Outro
EXTD=
EXTT0=
EXTT1=
EXTT2=
EXTT3=
EXTT4=
EXTT5=
EXTT6=
EXTT7=
EXTT8=
EXTT9=
EXTT10=
EXTT11=
EXTT12=
EXTT13=
EXTT14=
EXTT15=
EXTT16=
PLAYORDER=
